<svg width="40" height="40" viewBox="0 0 40 40" fill="none" xmlns="http://www.w3.org/2000/svg">
<circle cx="20" cy="20" r="19" fill="#151D20" stroke="#151D20" stroke-width="2"/>
<path d="M14.9015 15.4998C14.375 15.4998 13.9609 15.9498 14.0046 16.4746L15.0046 28.4746C15.0435 28.941 15.4334 29.2998 15.9015 29.2998H24.7654C25.2335 29.2998 25.6234 28.941 25.6623 28.4746L26.6623 16.4746C26.706 15.9498 26.2919 15.4998 25.7654 15.4998H14.9015Z" fill="white" stroke="white"/>
<path d="M12.3335 12H28.3335" stroke="white" stroke-linecap="round"/>
<path d="M21.9334 11.8334H22.4334V11.3334V10.8667C22.4334 10.4801 22.12 10.1667 21.7334 10.1667H18.9334C18.5468 10.1667 18.2334 10.4801 18.2334 10.8667V11.3334V11.8334H18.7334H21.9334Z" stroke="white"/>
</svg>
